<svg width="32" height="32" viewBox="0 0 32 32" fill="none" xmlns="http://www.w3.org/2000/svg">
<path d="M16 30.6666L6.09999 23.2333C5.83333 23.0333 5.63888 22.7777 5.51666 22.4666C5.39444 22.1555 5.33333 21.8333 5.33333 21.5V4.66663C5.33333 4.13329 5.53333 3.66663 5.93333 3.26663C6.33333 2.86663 6.79999 2.66663 7.33333 2.66663H24.6667C25.2 2.66663 25.6667 2.86663 26.0667 3.26663C26.4667 3.66663 26.6667 4.13329 26.6667 4.66663V21.5C26.6667 21.8333 26.6056 22.1555 26.4833 22.4666C26.3611 22.7777 26.1667 23.0333 25.9 23.2333L16 30.6666ZM16 28.1666L24.6667 21.5V4.66663H7.33333V21.5L16 28.1666ZM14.6 20L22.1333 12.4666L20.7 11.0666L14.5667 17.2L11.2667 13.9L9.86666 15.3L14.6 20ZM16 4.66663H7.33333H24.6667H16Z" fill="#FF9900"/>
</svg>
