<svg width="32" height="32" viewBox="0 0 32 32" fill="none" xmlns="http://www.w3.org/2000/svg">
<path d="M27.8667 19.0334L26.4333 17.6C27.4333 16.5111 28.2222 15.2889 28.8 13.9334C29.3778 12.5778 29.6667 11.1667 29.6667 9.70002C29.6667 8.23336 29.3722 6.8278 28.7833 5.48336C28.1945 4.13891 27.4 2.92225 26.4 1.83336L27.8333 0.400024C29.0333 1.66669 29.9722 3.10002 30.65 4.70002C31.3278 6.30002 31.6667 7.96669 31.6667 9.70002C31.6667 11.4334 31.3333 13.1056 30.6667 14.7167C30 16.3278 29.0667 17.7667 27.8667 19.0334ZM23.1667 14.3L21.7667 12.9C22.1445 12.4556 22.4445 11.9611 22.6667 11.4167C22.8889 10.8722 23 10.3111 23 9.73336C23 9.15558 22.8945 8.58891 22.6833 8.03336C22.4722 7.4778 22.1667 6.9778 21.7667 6.53336L23.1667 5.10002C23.7667 5.72225 24.2222 6.43336 24.5333 7.23336C24.8444 8.03336 25 8.85558 25 9.70002C25 10.5445 24.8389 11.3611 24.5167 12.15C24.1945 12.9389 23.7444 13.6556 23.1667 14.3ZM13.3333 17.3C11.8667 17.3 10.6667 16.8334 9.73334 15.9C8.80001 14.9667 8.33334 13.7667 8.33334 12.3C8.33334 10.8334 8.80001 9.63336 9.73334 8.70002C10.6667 7.76669 11.8667 7.30002 13.3333 7.30002C14.8 7.30002 16 7.76669 16.9333 8.70002C17.8667 9.63336 18.3333 10.8334 18.3333 12.3C18.3333 13.7667 17.8667 14.9667 16.9333 15.9C16 16.8334 14.8 17.3 13.3333 17.3ZM2.66667 28V24.8667C2.66667 24.0222 2.87778 23.3056 3.3 22.7167C3.72223 22.1278 4.26667 21.6667 4.93334 21.3334C6.06667 20.7556 7.40556 20.2778 8.95001 19.9C10.4944 19.5222 11.9556 19.3334 13.3333 19.3334C14.7111 19.3334 16.1667 19.5222 17.7 19.9C19.2333 20.2778 20.5667 20.7556 21.7 21.3334C22.3667 21.6667 22.9167 22.1278 23.35 22.7167C23.7833 23.3056 24 24.0222 24 24.8667V28H2.66667ZM4.66667 26H22V24.8667C22 24.5111 21.9056 24.1834 21.7167 23.8834C21.5278 23.5834 21.2556 23.3334 20.9 23.1334C19.8333 22.5334 18.6222 22.0834 17.2667 21.7834C15.9111 21.4834 14.6 21.3334 13.3333 21.3334C12.0667 21.3334 10.75 21.4945 9.38334 21.8167C8.01667 22.1389 6.80001 22.5778 5.73334 23.1334C5.42223 23.2889 5.16667 23.5278 4.96667 23.85C4.76667 24.1722 4.66667 24.5111 4.66667 24.8667V26ZM13.3333 15.3C14.2 15.3 14.9167 15.0167 15.4833 14.45C16.05 13.8834 16.3333 13.1667 16.3333 12.3C16.3333 11.4334 16.05 10.7167 15.4833 10.15C14.9167 9.58336 14.2 9.30002 13.3333 9.30002C12.4667 9.30002 11.75 9.58336 11.1833 10.15C10.6167 10.7167 10.3333 11.4334 10.3333 12.3C10.3333 13.1667 10.6167 13.8834 11.1833 14.45C11.75 15.0167 12.4667 15.3 13.3333 15.3Z" fill="#FF9900"/>
</svg>
