<svg width="32" height="32" viewBox="0 0 32 32" fill="none" xmlns="http://www.w3.org/2000/svg">
<path d="M16 29.3333C14.1556 29.3333 12.4222 28.9833 10.8 28.2833C9.1778 27.5833 7.76669 26.6333 6.56669 25.4333C5.36669 24.2333 4.41669 22.8222 3.71669 21.2C3.01669 19.5777 2.66669 17.8444 2.66669 16C2.66669 14.1555 3.01669 12.4222 3.71669 10.8C4.41669 9.17774 5.36669 7.76663 6.56669 6.56663C7.76669 5.36663 9.1778 4.41663 10.8 3.71663C12.4222 3.01663 14.1556 2.66663 16 2.66663C17.8445 2.66663 19.5778 3.01663 21.2 3.71663C22.8222 4.41663 24.2334 5.36663 25.4334 6.56663C26.6334 7.76663 27.5834 9.17774 28.2834 10.8C28.9834 12.4222 29.3334 14.1555 29.3334 16V17.7666C29.3334 19.0111 28.8945 20.0611 28.0167 20.9166C27.1389 21.7722 26.0667 22.2 24.8 22.2C24 22.2 23.2445 22.0055 22.5334 21.6166C21.8222 21.2277 21.2778 20.6777 20.9 19.9666C20.3222 20.7222 19.6 21.2833 18.7334 21.65C17.8667 22.0166 16.9556 22.2 16 22.2C14.2667 22.2 12.7945 21.6 11.5834 20.4C10.3722 19.2 9.76669 17.7333 9.76669 16C9.76669 14.2666 10.3722 12.7888 11.5834 11.5666C12.7945 10.3444 14.2667 9.73329 16 9.73329C17.7334 9.73329 19.2056 10.3444 20.4167 11.5666C21.6278 12.7888 22.2334 14.2666 22.2334 16V17.7666C22.2334 18.4555 22.4834 19.0333 22.9834 19.5C23.4834 19.9666 24.0889 20.2 24.8 20.2C25.4889 20.2 26.0834 19.9666 26.5834 19.5C27.0834 19.0333 27.3334 18.4555 27.3334 17.7666V16C27.3334 12.8444 26.2334 10.1666 24.0334 7.96663C21.8334 5.76663 19.1556 4.66663 16 4.66663C12.8445 4.66663 10.1667 5.76663 7.96669 7.96663C5.76669 10.1666 4.66669 12.8444 4.66669 16C4.66669 19.1555 5.76669 21.8333 7.96669 24.0333C10.1667 26.2333 12.8445 27.3333 16 27.3333H23.1334V29.3333H16ZM16 20.2C17.1778 20.2 18.1778 19.7944 19 18.9833C19.8222 18.1722 20.2334 17.1777 20.2334 16C20.2334 14.8 19.8222 13.7888 19 12.9666C18.1778 12.1444 17.1778 11.7333 16 11.7333C14.8222 11.7333 13.8222 12.1444 13 12.9666C12.1778 13.7888 11.7667 14.8 11.7667 16C11.7667 17.1777 12.1778 18.1722 13 18.9833C13.8222 19.7944 14.8222 20.2 16 20.2Z" fill="#FF9900"/>
</svg>
