<svg width="32" height="32" viewBox="0 0 32 32" fill="none" xmlns="http://www.w3.org/2000/svg">
<path d="M15.8333 29.3333L21.8667 13.3333H24.6L30.8 29.3333H27.9L26.5333 25.1333H20.1333L18.5667 29.3333H15.8333ZM20.8667 22.8H25.6L23.2667 16.3333H23.2L20.8667 22.8ZM5.33333 25.3333L3.49999 23.5L10.3 16.7C9.45555 15.7222 8.70555 14.7388 8.04999 13.75C7.39444 12.7611 6.82222 11.7333 6.33333 10.6666H9.23333C9.61111 11.4 10.0278 12.0944 10.4833 12.75C10.9389 13.4055 11.4556 14.0777 12.0333 14.7666C13.0333 13.7222 13.8667 12.6388 14.5333 11.5166C15.2 10.3944 15.7667 9.22218 16.2333 7.99996H1.33333V5.33329H10.6667V2.66663H13.3333V5.33329H22.6667V7.99996H18.9C18.4111 9.53329 17.7611 11.0388 16.95 12.5166C16.1389 13.9944 15.1444 15.4 13.9667 16.7333L17.2333 20.0333L16.2333 22.7333L12 18.6666L5.33333 25.3333Z" fill="#FF9900"/>
</svg>
