<svg width="32" height="32" viewBox="0 0 32 32" fill="none" xmlns="http://www.w3.org/2000/svg">
<g clip-path="url(#clip0_27_104)">
<path d="M10.6667 32C13.6107 32 16 29.6106 16 26.6666V21.3333H10.6667C7.72268 21.3333 5.33334 23.7226 5.33334 26.6666C5.33334 29.6106 7.72268 32 10.6667 32Z" fill="#0ACF83"/>
<path d="M5.33334 16C5.33334 13.056 7.72268 10.6667 10.6667 10.6667H16V21.3334H10.6667C7.72268 21.3334 5.33334 18.944 5.33334 16Z" fill="#A259FF"/>
<path d="M5.33334 5.33333C5.33334 2.38933 7.72268 0 10.6667 0H16V10.6667H10.6667C7.72268 10.6667 5.33334 8.27733 5.33334 5.33333Z" fill="#F24E1E"/>
<path d="M16 0H21.3333C24.2773 0 26.6667 2.38933 26.6667 5.33333C26.6667 8.27733 24.2773 10.6667 21.3333 10.6667H16V0Z" fill="#FF7262"/>
<path d="M26.6667 16C26.6667 18.944 24.2773 21.3334 21.3333 21.3334C18.3893 21.3334 16 18.944 16 16C16 13.056 18.3893 10.6667 21.3333 10.6667C24.2773 10.6667 26.6667 13.056 26.6667 16Z" fill="#1ABCFE"/>
</g>
<defs>
<clipPath id="clip0_27_104">
<rect width="32" height="32" fill="white"/>
</clipPath>
</defs>
</svg>
