<svg width="33" height="32" viewBox="0 0 33 32" fill="none" xmlns="http://www.w3.org/2000/svg">
<g clip-path="url(#clip0_27_139)">
<path d="M32.9903 0H0.00966797C0.0043285 0 0 0.00419733 0 0.009375V31.9906C0 31.9958 0.0043285 32 0.00966797 32H32.9903C32.9957 32 33 31.9958 33 31.9906V0.009375C33 0.00419733 32.9957 0 32.9903 0Z" fill="#F7DF1E"/>
<path d="M20.8828 23.125C21.5273 24.1875 22.4297 24.9375 23.9121 24.9375C25.2012 24.9375 26.0391 24.3125 26.0391 23.4375C26.0391 22.4375 25.2012 22.0625 23.7832 21.4375L23.0098 21.125C20.7539 20.1875 19.2715 19.0625 19.2715 16.625C19.2715 14.375 21.0117 12.625 23.7832 12.625C25.7812 12.625 27.1992 13.3125 28.166 15.0625L25.7812 16.5625C25.2656 15.625 24.6855 15.25 23.7832 15.25C22.8809 15.25 22.3008 15.8125 22.3008 16.5625C22.3008 17.4375 22.8809 17.8125 24.2344 18.375L25.0078 18.6875C27.6504 19.8125 29.1328 20.875 29.1328 23.4375C29.1328 26.125 26.9414 27.625 23.9766 27.625C21.0762 27.625 19.207 26.3125 18.3047 24.5625L20.8828 23.125ZM9.92578 23.375C10.4414 24.1875 10.8281 24.9375 11.9238 24.9375C12.9551 24.9375 13.5996 24.5625 13.5996 23.0625V12.6875H16.6934V22.9375C16.6934 26.0625 14.8242 27.4375 12.0527 27.4375C9.53906 27.4375 8.12109 26.1875 7.41211 24.6875L9.92578 23.375Z" fill="black"/>
</g>
<defs>
<clipPath id="clip0_27_139">
<rect width="33" height="32" fill="white"/>
</clipPath>
</defs>
</svg>
