<svg width="32" height="32" viewBox="0 0 32 32" fill="none" xmlns="http://www.w3.org/2000/svg">
<path d="M2.33333 28C2.04444 28 1.80555 27.9056 1.61666 27.7167C1.42777 27.5278 1.33333 27.2889 1.33333 27C1.33333 26.7111 1.42777 26.4722 1.61666 26.2833C1.80555 26.0944 2.04444 26 2.33333 26H29.6667C29.9556 26 30.1944 26.0944 30.3833 26.2833C30.5722 26.4722 30.6667 26.7111 30.6667 27C30.6667 27.2889 30.5722 27.5278 30.3833 27.7167C30.1944 27.9056 29.9556 28 29.6667 28H2.33333ZM4.66666 24C4.13333 24 3.66666 23.8 3.26666 23.4C2.86666 23 2.66666 22.5333 2.66666 22V6C2.66666 5.46667 2.86666 5 3.26666 4.6C3.66666 4.2 4.13333 4 4.66666 4H27.3333C27.8667 4 28.3333 4.2 28.7333 4.6C29.1333 5 29.3333 5.46667 29.3333 6V22C29.3333 22.5333 29.1333 23 28.7333 23.4C28.3333 23.8 27.8667 24 27.3333 24H4.66666ZM4.66666 22H27.3333V6H4.66666V22ZM4.66666 22V6V22Z" fill="#FF9900"/>
</svg>
