<svg width="32" height="32" viewBox="0 0 32 32" fill="none" xmlns="http://www.w3.org/2000/svg">
<path d="M8.26666 22C9.46666 22 10.6278 22.1389 11.75 22.4167C12.8722 22.6945 13.9778 23.1112 15.0667 23.6667V9.43337C14.0667 8.76671 12.9833 8.25004 11.8167 7.88337C10.65 7.51671 9.46666 7.33337 8.26666 7.33337C7.42222 7.33337 6.59444 7.43893 5.78333 7.65004C4.97222 7.86115 4.15555 8.12226 3.33333 8.43337V22.9C4.02222 22.5889 4.80555 22.3612 5.68333 22.2167C6.56111 22.0723 7.42222 22 8.26666 22ZM17.0667 23.6667C18.1778 23.1112 19.2667 22.6945 20.3333 22.4167C21.4 22.1389 22.5333 22 23.7333 22C24.5778 22 25.45 22.0667 26.35 22.2C27.25 22.3334 28.0222 22.5112 28.6667 22.7334V8.43337C27.9111 8.0556 27.1111 7.77782 26.2667 7.60004C25.4222 7.42226 24.5778 7.33337 23.7333 7.33337C22.5333 7.33337 21.3722 7.51671 20.25 7.88337C19.1278 8.25004 18.0667 8.76671 17.0667 9.43337V23.6667ZM16.0667 26.6667C14.9333 25.8223 13.7 25.1723 12.3667 24.7167C11.0333 24.2612 9.66666 24.0334 8.26666 24.0334C7.44444 24.0334 6.64444 24.1334 5.86666 24.3334C5.08888 24.5334 4.31111 24.7778 3.53333 25.0667C3.02222 25.3112 2.52777 25.2778 2.04999 24.9667C1.57222 24.6556 1.33333 24.2112 1.33333 23.6334V8.20004C1.33333 7.86671 1.41111 7.56115 1.56666 7.28337C1.72222 7.0056 1.95555 6.78893 2.26666 6.63337C3.2 6.18893 4.17222 5.86115 5.18333 5.65004C6.19444 5.43893 7.22222 5.33337 8.26666 5.33337C9.66666 5.33337 11.0278 5.52226 12.35 5.90004C13.6722 6.27782 14.9111 6.8556 16.0667 7.63337C17.2 6.8556 18.4167 6.27782 19.7167 5.90004C21.0167 5.52226 22.3556 5.33337 23.7333 5.33337C24.7778 5.33337 25.8 5.43893 26.8 5.65004C27.8 5.86115 28.7667 6.18893 29.7 6.63337C30.0111 6.78893 30.25 7.0056 30.4167 7.28337C30.5833 7.56115 30.6667 7.86671 30.6667 8.20004V23.6334C30.6667 24.2556 30.4167 24.7278 29.9167 25.05C29.4167 25.3723 28.9222 25.3778 28.4333 25.0667C27.6778 24.7556 26.9111 24.5056 26.1333 24.3167C25.3556 24.1278 24.5555 24.0334 23.7333 24.0334C22.3333 24.0334 20.9889 24.2667 19.7 24.7334C18.4111 25.2 17.2 25.8445 16.0667 26.6667Z" fill="#FF9900"/>
</svg>
