<svg width="33" height="32" viewBox="0 0 33 32" fill="none" xmlns="http://www.w3.org/2000/svg">
<path d="M4.57617 28.75L1.93359 0H31.002L28.3594 28.75L16.4355 32" fill="#E34F26"/>
<path d="M16.5 29.5L26.1035 26.9375L28.3594 2.3125H16.5" fill="#EF652A"/>
<path d="M16.5 13H11.666L11.3438 9.375H16.5V5.875H7.34766L8.31445 16.5625H16.5V13ZM16.4355 22.1875L12.375 21.125L12.1172 18.3125H8.50781L8.95898 23.875L16.4355 25.875V22.1875Z" fill="#EBEBEB"/>
<path d="M16.4355 13V16.5625H20.9473L20.4961 21.125L16.4355 22.1875V25.875L23.9121 23.875L24.9434 13H16.4355ZM16.4355 5.875V9.375H25.2656L25.5879 5.875H16.4355Z" fill="white"/>
</svg>
