<svg width="130" height="34" viewBox="0 0 130 34" fill="none" xmlns="http://www.w3.org/2000/svg">
<path d="M12.52 26.6L17.36 10.68H24.64L16.72 33H8.28L0.360001 10.68H7.68L12.52 26.6Z" fill="#191919"/>
<path d="M30.9591 8.36002C29.7591 8.36002 28.7724 8.01336 27.9991 7.32002C27.2524 6.60002 26.8791 5.72002 26.8791 4.68002C26.8791 3.61336 27.2524 2.73336 27.9991 2.04002C28.7724 1.32002 29.7591 0.960022 30.9591 0.960022C32.1324 0.960022 33.0924 1.32002 33.8391 2.04002C34.6124 2.73336 34.9991 3.61336 34.9991 4.68002C34.9991 5.72002 34.6124 6.60002 33.8391 7.32002C33.0924 8.01336 32.1324 8.36002 30.9591 8.36002ZM34.3591 10.68V33H27.5191V10.68H34.3591Z" fill="#191919"/>
<path d="M37.9559 21.84C37.9559 19.52 38.4226 17.4934 39.3559 15.76C40.3159 14.0267 41.6359 12.6934 43.3159 11.76C45.0226 10.8267 46.9693 10.36 49.1559 10.36C51.9559 10.36 54.2893 11.0934 56.1559 12.56C58.0493 14.0267 59.2893 16.0934 59.8759 18.76H52.5959C51.9826 17.0534 50.7959 16.2 49.0359 16.2C47.7826 16.2 46.7826 16.6934 46.0359 17.68C45.2893 18.64 44.9159 20.0267 44.9159 21.84C44.9159 23.6534 45.2893 25.0534 46.0359 26.04C46.7826 27 47.7826 27.48 49.0359 27.48C50.7959 27.48 51.9826 26.6267 52.5959 24.92H59.8759C59.2893 27.5334 58.0493 29.5867 56.1559 31.08C54.2626 32.5734 51.9293 33.32 49.1559 33.32C46.9693 33.32 45.0226 32.8534 43.3159 31.92C41.6359 30.9867 40.3159 29.6534 39.3559 27.92C38.4226 26.1867 37.9559 24.16 37.9559 21.84Z" fill="#191919"/>
<path d="M75.9747 27.2V33H72.4947C70.0147 33 68.0814 32.4 66.6947 31.2C65.308 29.9734 64.6147 27.9867 64.6147 25.24V16.36H61.8947V10.68H64.6147V5.24002H71.4547V10.68H75.9347V16.36H71.4547V25.32C71.4547 25.9867 71.6147 26.4667 71.9347 26.76C72.2547 27.0534 72.788 27.2 73.5347 27.2H75.9747Z" fill="#191919"/>
<path d="M89.9447 33.32C87.758 33.32 85.7847 32.8534 84.0247 31.92C82.2914 30.9867 80.918 29.6534 79.9047 27.92C78.918 26.1867 78.4247 24.16 78.4247 21.84C78.4247 19.5467 78.9314 17.5334 79.9447 15.8C80.958 14.04 82.3447 12.6934 84.1047 11.76C85.8647 10.8267 87.838 10.36 90.0247 10.36C92.2114 10.36 94.1847 10.8267 95.9447 11.76C97.7047 12.6934 99.0914 14.04 100.105 15.8C101.118 17.5334 101.625 19.5467 101.625 21.84C101.625 24.1334 101.105 26.16 100.065 27.92C99.0514 29.6534 97.6514 30.9867 95.8647 31.92C94.1047 32.8534 92.1314 33.32 89.9447 33.32ZM89.9447 27.4C91.2514 27.4 92.358 26.92 93.2647 25.96C94.198 25 94.6647 23.6267 94.6647 21.84C94.6647 20.0534 94.2114 18.68 93.3047 17.72C92.4247 16.76 91.3314 16.28 90.0247 16.28C88.6914 16.28 87.5847 16.76 86.7047 17.72C85.8247 18.6534 85.3847 20.0267 85.3847 21.84C85.3847 23.6267 85.8114 25 86.6647 25.96C87.5447 26.92 88.638 27.4 89.9447 27.4Z" fill="#191919"/>
<path d="M112.093 14.4C112.893 13.1734 113.893 12.2134 115.093 11.52C116.293 10.8 117.627 10.44 119.093 10.44V17.68H117.213C115.507 17.68 114.227 18.0534 113.373 18.8C112.52 19.52 112.093 20.8 112.093 22.64V33H105.253V10.68H112.093V14.4Z" fill="#191919"/>
<path d="M125.563 33.32C124.363 33.32 123.376 32.9734 122.603 32.28C121.856 31.56 121.483 30.68 121.483 29.64C121.483 28.5734 121.856 27.68 122.603 26.96C123.376 26.24 124.363 25.88 125.563 25.88C126.736 25.88 127.696 26.24 128.443 26.96C129.216 27.68 129.603 28.5734 129.603 29.64C129.603 30.68 129.216 31.56 128.443 32.28C127.696 32.9734 126.736 33.32 125.563 33.32Z" fill="#FF9900"/>
</svg>
